# xmcd
#
# Track frame offsets: 
#        150
#        20320
#        47670
#        94957
#        108245
#        140292
#        162015
#        179740
#        194132
#        214115
#        230987
#        247062
#        277507
#
# Disc length: 4177 seconds
#
# Revision: 10
# Processed by: cddbd v1.5.2PL0 Copyright (c) Steve Scherf et al.
# Submitted via: ExactAudioCopy v0.99pb4
#
DISCID=ba104f0d
DTITLE=Fleetwood Mac - Live in Boston: Volume Three
DYEAR=1970
DGENRE=Blues Rock
TTITLE0=Jumping at Shadows
TTITLE1=Sandy Mary
TTITLE2=If You Let Me Love You
TTITLE3=Loving Kind
TTITLE4=Coming Your Way
TTITLE5=Madison Blues
TTITLE6=Got to Move
TTITLE7=The Sun Is Shining
TTITLE8=Oh Baby
TTITLE9=Tiger
TTITLE10=Great Balls of Fire
TTITLE11=Tutti Frutti
TTITLE12=On We Jam
EXTD=YEAR: 1970
EXTT0=
EXTT1=
EXTT2=
EXTT3=
EXTT4=
EXTT5=
EXTT6=
EXTT7=
EXTT8=
EXTT9=
EXTT10=
EXTT11=
EXTT12=
PLAYORDER=
